<svg width="20" height="20" viewBox="0 0 20 20" fill="none" xmlns="http://www.w3.org/2000/svg">
<path d="M18.7499 4.37527V8.12527C18.7499 8.29103 18.6841 8.45001 18.5669 8.56722C18.4497 8.68443 18.2907 8.75027 18.1249 8.75027H14.3749C14.2092 8.75027 14.0502 8.68443 13.933 8.56722C13.8158 8.45001 13.7499 8.29103 13.7499 8.12527C13.7499 7.95951 13.8158 7.80054 13.933 7.68333C14.0502 7.56612 14.2092 7.50027 14.3749 7.50027H16.5156L14.4382 5.59715L14.4187 5.5784C13.55 4.71003 12.4447 4.11688 11.2408 3.87304C10.037 3.62921 8.78798 3.7455 7.64984 4.20738C6.5117 4.66927 5.5349 5.45628 4.84144 6.47009C4.14798 7.4839 3.76863 8.67957 3.75076 9.90773C3.73289 11.1359 4.0773 12.3421 4.74097 13.3756C5.40463 14.4092 6.35813 15.2243 7.48235 15.7191C8.60657 16.2139 9.85166 16.3665 11.0621 16.1578C12.2725 15.9491 13.3946 15.3883 14.2882 14.5456C14.4087 14.4316 14.5695 14.3702 14.7353 14.3748C14.9011 14.3794 15.0582 14.4497 15.1722 14.5702C15.2862 14.6907 15.3476 14.8515 15.343 15.0173C15.3384 15.1831 15.2681 15.3402 15.1476 15.4542C13.7581 16.7719 11.9149 17.5046 9.99993 17.5003H9.8968C8.66847 17.4834 7.46308 17.1652 6.38656 16.5734C5.31005 15.9816 4.39538 15.1345 3.72294 14.1064C3.0505 13.0784 2.64088 11.9009 2.53008 10.6774C2.41928 9.45399 2.6107 8.22206 3.08751 7.08993C3.56432 5.95779 4.31192 4.96011 5.2646 4.18457C6.21729 3.40902 7.34589 2.87936 8.55121 2.64214C9.75654 2.40492 11.0017 2.4674 12.1772 2.82409C13.3527 3.18078 14.4226 3.82076 15.2929 4.68777L17.4999 6.7034V4.37527C17.4999 4.20951 17.5658 4.05054 17.683 3.93333C17.8002 3.81612 17.9592 3.75027 18.1249 3.75027C18.2907 3.75027 18.4497 3.81612 18.5669 3.93333C18.6841 4.05054 18.7499 4.20951 18.7499 4.37527Z" fill="black"/>
</svg>
