<svg width="20" height="20" viewBox="0 0 20 20" fill="none" xmlns="http://www.w3.org/2000/svg">
<g clip-path="url(#clip0_85_2550)">
<path d="M12.7742 1.93815C12.6691 1.88694 12.5518 1.86623 12.4355 1.87839C12.3192 1.89054 12.2086 1.93507 12.1164 2.0069L6.66016 6.24987H3.125C2.79348 6.24987 2.47554 6.38157 2.24112 6.61599C2.0067 6.85041 1.875 7.16835 1.875 7.49987V12.4999C1.875 12.8314 2.0067 13.1493 2.24112 13.3838C2.47554 13.6182 2.79348 13.7499 3.125 13.7499H6.66016L12.1164 17.9928C12.2087 18.0646 12.3194 18.1091 12.4357 18.1211C12.552 18.1331 12.6694 18.1123 12.7745 18.0609C12.8795 18.0096 12.9681 17.9298 13.03 17.8306C13.092 17.7314 13.1249 17.6168 13.125 17.4999V2.49987C13.125 2.38279 13.0921 2.26805 13.0301 2.16874C12.9681 2.06942 12.8794 1.98953 12.7742 1.93815ZM11.875 16.2217L7.25859 12.6319C7.14914 12.5461 7.01405 12.4996 6.875 12.4999H3.125V7.49987H6.875C7.01405 7.5001 7.14914 7.4536 7.25859 7.36784L11.875 3.778V16.2217ZM19.8172 11.4327C19.9345 11.55 20.0003 11.709 20.0003 11.8749C20.0003 12.0407 19.9345 12.1998 19.8172 12.3171C19.6999 12.4343 19.5409 12.5002 19.375 12.5002C19.2091 12.5002 19.0501 12.4343 18.9328 12.3171L17.5 10.8835L16.0672 12.3171C15.9499 12.4343 15.7909 12.5002 15.625 12.5002C15.4591 12.5002 15.3001 12.4343 15.1828 12.3171C15.0655 12.1998 14.9997 12.0407 14.9997 11.8749C14.9997 11.709 15.0655 11.55 15.1828 11.4327L16.6164 9.99987L15.1828 8.56706C15.0655 8.44979 14.9997 8.29073 14.9997 8.12487C14.9997 7.95902 15.0655 7.79996 15.1828 7.68269C15.3001 7.56541 15.4591 7.49953 15.625 7.49953C15.7909 7.49953 15.9499 7.56541 16.0672 7.68269L17.5 9.11628L18.9328 7.68269C19.0501 7.56541 19.2091 7.49953 19.375 7.49953C19.5409 7.49953 19.6999 7.56541 19.8172 7.68269C19.9345 7.79996 20.0003 7.95902 20.0003 8.12487C20.0003 8.29073 19.9345 8.44979 19.8172 8.56706L18.3836 9.99987L19.8172 11.4327Z" fill="black"/>
</g>
<defs>
<clipPath id="clip0_85_2550">
<rect width="20" height="20" fill="white"/>
</clipPath>
</defs>
</svg>
